<?xml version="1.0" encoding="UTF-8" standalone="no"?>
<!DOCTYPE svg PUBLIC "-//W3C//DTD SVG 1.1//EN"
 "http://www.w3.org/Graphics/SVG/1.1/DTD/svg11.dtd">
<!-- Generated by graphviz version 2.40.1 (20161225.0304)
 -->
<!-- Title: %3 Pages: 1 -->
<svg width="586pt" height="476pt"
 viewBox="0.00 0.00 586.25 476.00" xmlns="http://www.w3.org/2000/svg" xmlns:xlink="http://www.w3.org/1999/xlink">
<g id="graph0" class="graph" transform="scale(1 1) rotate(0) translate(4 472)">
<title>%3</title>
<polygon fill="#ffffff" stroke="transparent" points="-4,4 -4,-472 582.2501,-472 582.2501,4 -4,4"/>
<!-- [root] aws_instance.rabbitmq -->
<g id="node1" class="node">
<title>[root] aws_instance.rabbitmq</title>
<polygon fill="none" stroke="#000000" points="437.2733,-252 292.8996,-252 292.8996,-216 437.2733,-216 437.2733,-252"/>
<text text-anchor="middle" x="365.0864" y="-229.8" font-family="Times,serif" font-size="14.00" fill="#000000">aws_instance.rabbitmq</text>
</g>
<!-- [root] aws_security_group.security_group -->
<g id="node2" class="node">
<title>[root] aws_security_group.security_group</title>
<polygon fill="none" stroke="#000000" points="330.318,-180 113.8549,-180 113.8549,-144 330.318,-144 330.318,-180"/>
<text text-anchor="middle" x="222.0864" y="-157.8" font-family="Times,serif" font-size="14.00" fill="#000000">aws_security_group.security_group</text>
</g>
<!-- [root] aws_instance.rabbitmq&#45;&gt;[root] aws_security_group.security_group -->
<g id="edge1" class="edge">
<title>[root] aws_instance.rabbitmq&#45;&gt;[root] aws_security_group.security_group</title>
<path fill="none" stroke="#000000" d="M329.0015,-215.8314C310.2875,-206.4089 287.2432,-194.8062 267.3465,-184.7883"/>
<polygon fill="#000000" stroke="#000000" points="268.6656,-181.5339 258.1598,-180.1628 265.5176,-187.7861 268.6656,-181.5339"/>
</g>
<!-- [root] data.aws_ami.server -->
<g id="node3" class="node">
<title>[root] data.aws_ami.server</title>
<polygon fill="none" stroke="#000000" points="440.3699,-108 309.8029,-108 309.8029,-72 440.3699,-72 440.3699,-108"/>
<text text-anchor="middle" x="375.0864" y="-85.8" font-family="Times,serif" font-size="14.00" fill="#000000">data.aws_ami.server</text>
</g>
<!-- [root] aws_instance.rabbitmq&#45;&gt;[root] data.aws_ami.server -->
<g id="edge2" class="edge">
<title>[root] aws_instance.rabbitmq&#45;&gt;[root] data.aws_ami.server</title>
<path fill="none" stroke="#000000" d="M366.3529,-215.7623C368.0586,-191.201 371.1109,-147.2474 373.1174,-118.3541"/>
<polygon fill="#000000" stroke="#000000" points="376.6289,-118.3081 373.8302,-108.0896 369.6457,-117.8231 376.6289,-118.3081"/>
</g>
<!-- [root] data.aws_subnet.default -->
<g id="node4" class="node">
<title>[root] data.aws_subnet.default</title>
<polygon fill="none" stroke="#000000" points="543.098,-180 393.0749,-180 393.0749,-144 543.098,-144 543.098,-180"/>
<text text-anchor="middle" x="468.0864" y="-157.8" font-family="Times,serif" font-size="14.00" fill="#000000">data.aws_subnet.default</text>
</g>
<!-- [root] aws_instance.rabbitmq&#45;&gt;[root] data.aws_subnet.default -->
<g id="edge3" class="edge">
<title>[root] aws_instance.rabbitmq&#45;&gt;[root] data.aws_subnet.default</title>
<path fill="none" stroke="#000000" d="M391.0777,-215.8314C404.008,-206.7927 419.8086,-195.7476 433.7247,-186.0198"/>
<polygon fill="#000000" stroke="#000000" points="435.9127,-188.7608 442.1035,-180.1628 431.9022,-183.0235 435.9127,-188.7608"/>
</g>
<!-- [root] data.aws_vpc.default -->
<g id="node5" class="node">
<title>[root] data.aws_vpc.default</title>
<polygon fill="none" stroke="#000000" points="134.2594,-108 -.0865,-108 -.0865,-72 134.2594,-72 134.2594,-108"/>
<text text-anchor="middle" x="67.0864" y="-85.8" font-family="Times,serif" font-size="14.00" fill="#000000">data.aws_vpc.default</text>
</g>
<!-- [root] aws_security_group.security_group&#45;&gt;[root] data.aws_vpc.default -->
<g id="edge4" class="edge">
<title>[root] aws_security_group.security_group&#45;&gt;[root] data.aws_vpc.default</title>
<path fill="none" stroke="#000000" d="M182.9734,-143.8314C162.3352,-134.2446 136.8381,-122.4008 115.0191,-112.2655"/>
<polygon fill="#000000" stroke="#000000" points="116.462,-109.0766 105.9182,-108.038 113.513,-115.4251 116.462,-109.0766"/>
</g>
<!-- [root] var.project -->
<g id="node7" class="node">
<title>[root] var.project</title>
<ellipse fill="none" stroke="#000000" cx="222.0864" cy="-90" rx="70.0495" ry="18"/>
<text text-anchor="middle" x="222.0864" y="-85.8" font-family="Times,serif" font-size="14.00" fill="#000000">[root] var.project</text>
</g>
<!-- [root] aws_security_group.security_group&#45;&gt;[root] var.project -->
<g id="edge5" class="edge">
<title>[root] aws_security_group.security_group&#45;&gt;[root] var.project</title>
<path fill="none" stroke="#000000" d="M222.0864,-143.8314C222.0864,-136.131 222.0864,-126.9743 222.0864,-118.4166"/>
<polygon fill="#000000" stroke="#000000" points="225.5865,-118.4132 222.0864,-108.4133 218.5865,-118.4133 225.5865,-118.4132"/>
</g>
<!-- [root] provider.aws -->
<g id="node6" class="node">
<title>[root] provider.aws</title>
<polygon fill="none" stroke="#000000" points="375.0864,-36 296.4781,-18 375.0864,0 453.6948,-18 375.0864,-36"/>
<text text-anchor="middle" x="375.0864" y="-13.8" font-family="Times,serif" font-size="14.00" fill="#000000">provider.aws</text>
</g>
<!-- [root] data.aws_ami.server&#45;&gt;[root] provider.aws -->
<g id="edge6" class="edge">
<title>[root] data.aws_ami.server&#45;&gt;[root] provider.aws</title>
<path fill="none" stroke="#000000" d="M375.0864,-71.8314C375.0864,-64.131 375.0864,-54.9743 375.0864,-46.4166"/>
<polygon fill="#000000" stroke="#000000" points="378.5865,-46.4132 375.0864,-36.4133 371.5865,-46.4133 378.5865,-46.4132"/>
</g>
<!-- [root] data.aws_subnet.default&#45;&gt;[root] provider.aws -->
<g id="edge7" class="edge">
<title>[root] data.aws_subnet.default&#45;&gt;[root] provider.aws</title>
<path fill="none" stroke="#000000" d="M467.9838,-143.6499C467.0622,-124.3662 463.2256,-93.8552 449.0864,-72 439.2853,-56.8502 423.6375,-44.5226 409.2501,-35.4912"/>
<polygon fill="#000000" stroke="#000000" points="410.9023,-32.4017 400.5184,-30.2981 407.3241,-38.418 410.9023,-32.4017"/>
</g>
<!-- [root] data.aws_vpc.default&#45;&gt;[root] provider.aws -->
<g id="edge8" class="edge">
<title>[root] data.aws_vpc.default&#45;&gt;[root] provider.aws</title>
<path fill="none" stroke="#000000" d="M134.2198,-74.0851C137.2161,-73.3795 140.1823,-72.6819 143.0864,-72 206.0989,-57.2047 278.7819,-40.3157 325.7567,-29.4237"/>
<polygon fill="#000000" stroke="#000000" points="326.7166,-32.794 335.6679,-27.1261 325.1358,-25.9749 326.7166,-32.794"/>
</g>
<!-- [root] meta.count&#45;boundary (count boundary fixup) -->
<g id="node8" class="node">
<title>[root] meta.count&#45;boundary (count boundary fixup)</title>
<ellipse fill="none" stroke="#000000" cx="255.0864" cy="-378" rx="191.6931" ry="18"/>
<text text-anchor="middle" x="255.0864" y="-373.8" font-family="Times,serif" font-size="14.00" fill="#000000">[root] meta.count&#45;boundary (count boundary fixup)</text>
</g>
<!-- [root] output.public_dns -->
<g id="node9" class="node">
<title>[root] output.public_dns</title>
<ellipse fill="none" stroke="#000000" cx="256.0864" cy="-306" rx="96.1518" ry="18"/>
<text text-anchor="middle" x="256.0864" y="-301.8" font-family="Times,serif" font-size="14.00" fill="#000000">[root] output.public_dns</text>
</g>
<!-- [root] meta.count&#45;boundary (count boundary fixup)&#45;&gt;[root] output.public_dns -->
<g id="edge9" class="edge">
<title>[root] meta.count&#45;boundary (count boundary fixup)&#45;&gt;[root] output.public_dns</title>
<path fill="none" stroke="#000000" d="M255.3388,-359.8314C255.4457,-352.131 255.5729,-342.9743 255.6918,-334.4166"/>
<polygon fill="#000000" stroke="#000000" points="259.1914,-334.4609 255.8307,-324.4133 252.192,-334.3637 259.1914,-334.4609"/>
</g>
<!-- [root] output.public_dns&#45;&gt;[root] aws_instance.rabbitmq -->
<g id="edge10" class="edge">
<title>[root] output.public_dns&#45;&gt;[root] aws_instance.rabbitmq</title>
<path fill="none" stroke="#000000" d="M282.4723,-288.5708C296.4822,-279.3166 313.9053,-267.8077 329.1344,-257.7481"/>
<polygon fill="#000000" stroke="#000000" points="331.3903,-260.4527 337.8053,-252.0206 327.5322,-254.6119 331.3903,-260.4527"/>
</g>
<!-- [root] provider.aws (close) -->
<g id="node10" class="node">
<title>[root] provider.aws (close)</title>
<ellipse fill="none" stroke="#000000" cx="474.0864" cy="-306" rx="104.3276" ry="18"/>
<text text-anchor="middle" x="474.0864" y="-301.8" font-family="Times,serif" font-size="14.00" fill="#000000">[root] provider.aws (close)</text>
</g>
<!-- [root] provider.aws (close)&#45;&gt;[root] aws_instance.rabbitmq -->
<g id="edge11" class="edge">
<title>[root] provider.aws (close)&#45;&gt;[root] aws_instance.rabbitmq</title>
<path fill="none" stroke="#000000" d="M447.7006,-288.5708C433.6907,-279.3166 416.2676,-267.8077 401.0384,-257.7481"/>
<polygon fill="#000000" stroke="#000000" points="402.6407,-254.6119 392.3676,-252.0206 398.7825,-260.4527 402.6407,-254.6119"/>
</g>
<!-- [root] root -->
<g id="node11" class="node">
<title>[root] root</title>
<ellipse fill="none" stroke="#000000" cx="365.0864" cy="-450" rx="46.8976" ry="18"/>
<text text-anchor="middle" x="365.0864" y="-445.8" font-family="Times,serif" font-size="14.00" fill="#000000">[root] root</text>
</g>
<!-- [root] root&#45;&gt;[root] meta.count&#45;boundary (count boundary fixup) -->
<g id="edge12" class="edge">
<title>[root] root&#45;&gt;[root] meta.count&#45;boundary (count boundary fixup)</title>
<path fill="none" stroke="#000000" d="M341.2181,-434.3771C326.61,-424.8154 307.633,-412.3941 291.211,-401.6452"/>
<polygon fill="#000000" stroke="#000000" points="292.6783,-398.4225 282.3945,-395.8744 288.8447,-404.2794 292.6783,-398.4225"/>
</g>
<!-- [root] root&#45;&gt;[root] provider.aws (close) -->
<g id="edge13" class="edge">
<title>[root] root&#45;&gt;[root] provider.aws (close)</title>
<path fill="none" stroke="#000000" d="M399.4876,-437.7956C419.031,-429.1087 442.2818,-415.4881 456.0864,-396 468.7727,-378.0908 473.0183,-353.4004 474.2336,-334.4099"/>
<polygon fill="#000000" stroke="#000000" points="477.7373,-334.3847 474.6358,-324.254 470.7428,-334.1077 477.7373,-334.3847"/>
</g>
</g>
</svg>
